<svg xmlns="http://www.w3.org/2000/svg" version="1.1" xmlns:xlink="http://www.w3.org/1999/xlink" xmlns:svgjs="http://svgjs.dev/svgjs" width="2000" height="2250" viewBox="0 0 2000 2250"><g transform="matrix(1,0,0,1,0.00014687500004129106,0)"><svg viewBox="0 0 320 360" data-background-color="#ffffff" preserveAspectRatio="xMidYMid meet" height="2250" width="2000" xmlns="http://www.w3.org/2000/svg" xmlns:xlink="http://www.w3.org/1999/xlink"><g id="tight-bounds" transform="matrix(1,0,0,1,0.000023499999997511622,0)"><svg viewBox="0 0 320 360" height="360" width="320"><g><svg></svg></g><g><svg viewBox="0 0 320 360" height="360" width="320"><g><path transform="translate(-74.99272,-51.79039) scale(4.65793,4.65793)" d="M20.6 59.9l0.8 1-0.4-1.3c-0.1-0.6-0.8 0.1-0.4 0.3M21.5 59.3c0.3 0.5 0.6 1 0.6 1.5 0 0.7 0.6 1 1.1 1.2-0.7-0.8-1.1-3-1.7-2.7M59.9 16.9c1.7 0 3.3-0.2 5.1 0.2 4.4 1.1 8.1 3.3 10.6 6.4l7 11.2c0.3 2.8 0.9 5.9 0.8 9.3 0.7 0 0.6-1 1.4-1.2-0.8 2-1.2 4.5-1.4 7.4-0.5-1.6 0-4 0.1-5.3-0.7 1.1-1.1 0.3-1.1-0.2 0.1-0.8-0.3-0.7-0.6-1-1.1-1-1.8-2.1-2.6-3.8 0.5-1.3 0.6-3.2-1-4.2-0.5-0.3-1.1-0.8-1.4-1.6-0.4-1.1-1.1-2.4-0.9-4.1 0.1-0.5-1.5 1.1-2.4 0.4-3.9-2.7-7.8-5.8-12.5-8.4-2.5 0-4.3-0.9-5.2-2-0.8-1-0.2-2.3 1-2.4 0.7 0 1.5-0.2 2.1 0.2 0.1-0.4 0.5-0.9 1-0.9M50 14.6l0.2 0.1c1 0.2 1.5 1.6 2.6 1.1 0 0.7 0.1 1.4-0.1 1.9-0.3 0.8-1.2 0.8-1.9 0.8-6.7-0.4-10.6 2.4-14.7 4.8-1.1 0.7-2.3 1.2-3.2 2.1-4.3 4-9 7.7-10.1 15.1l-0.9 8.2c-0.1 0.9-1.1 1.8-0.9 2.9l0.7 4.9c-0.7-0.7-1.1 0.2-0.9 0.6 0.1 0.3 0.5 1.3 1.1 0.4 0.8 1.5 1.6 4.4 2.7 5.7 3.4 4 7.8 7.6 11.4 11.2 0.9-0.2 1.6-0.2 1.8-0.8 0.3 0.6-0.3 1.2-0.8 1.3 1.6 1 3.4 1.9 5.8 2.1 3.1 0.2 6 0.7 8.7 1.4 1.4-0.4 2.8-0.6 4.3-0.7 0.5 0 0.8-0.8 1.4-1l0.1-1c0.6 0.9 0.5-0.3 0.1-0.9 0.7 0.6 0.9 1.1 1.2 1.5 0-0.3 0.8-1.4 0.8-0.1l0.2-1.3c0.3-0.2 0.4 1.1 0.7 0.2 0.3-0.9 0.9-0.2 1.5-0.5-0.2 0.4-0.1 1.2 0.6 0.7l0.8-0.7c0.5 1.2 1.3 0.7 1.7 0.5 4.4-2.8 8.8-6.1 13-9.4l-0.1 1.3 0.5-1.6c0.5 0.5 0.9 0.1 1.1-0.2 0.6-1 1.4-2 2.7-2.9-1.6 4.3-3.5 7.7-5.9 10.5l-1 1.2c0 0.7-0.2 1.6-1 1.7-0.4 0.1-1.2-0.2-1.8 0.4-0.3 0.4 0.7 1.2-0.1 0.6-0.7-0.5-1.4 0-2.2 0.2-0.6 0.2 0.4 0.8 0.6 1.2 0.2 0.4 0.4 0.8 0.3 1.3l-1.1-1.2c-1.3 0.7-2.1 2-3.2 3-0.5 0.4-0.3 1.1-0.3 1.7-0.7 0-1.5-0.2-1.9 0.2-0.3 0.4-0.2 1-0.2 1.6-1-0.1-1.1-1.6-2-1.3-0.9 0.2-1.9 0.3-2.7 0.8 0.6 1.2-1 0.5-0.8 0.7-1.5-0.9-2.8-1.6-4.4-1-3.4-1.1-7.6-0.6-10.7-0.2 0-0.5 0.1-1-0.1-1.1-0.2 0.5-0.8 0.3-0.7 0.3-1.9-1.3-3.8-2.1-5.8-3.2-1.8 0.2-3.5-0.7-4-1.2-1.4-1.3-3-0.6-4.3-0.9-2.8-0.7-3.8-3.6-4.1-5.6-0.2-1-1-1.4-1.3-1.3-1.3-4.2-3.3-8-4.9-11.9-0.4-1-0.3-2-0.3-3.1 0.5 0.2 1 0.1 0.9-0.6-0.5-3.3-1.7-5.8-3-8.2 0.7-3.4 0.8-7.4 2.4-10.4 1.4-2.7 4-4.1 5.8-6.4 0.6-0.8 0.6-1.9 1.2-2.6 2-2 4-4.1 6.2-5.9 1-0.8 2.2 0 3.7-0.3 0.5-1.8 2.5-3.4 4.4-2.9 0.8 0.2 2.4-1.9 2.9-2.1 0.8-0.3 0.4 0.8 0.4 1.5 1.9-1.5 4.5-2.3 6.9-3.2" fill="#ca3433" fill-rule="nonzero" stroke="none" stroke-width="1" stroke-linecap="butt" stroke-linejoin="miter" stroke-miterlimit="10" stroke-dasharray="" stroke-dashoffset="0" font-family="none" font-weight="none" font-size="none" text-anchor="none" style="mix-blend-mode: normal" data-fill-palette-color="tertiary"></path></g><g transform="matrix(1,0,0,1,88.72074002940032,90)"><svg viewBox="0 0 142.55851994119936 180" height="180" width="142.55851994119936"><g><svg viewBox="0 0 142.55851994119936 180" height="180" width="142.55851994119936"><g><svg viewBox="0 0 192 242.426759300355" height="180" width="142.55851994119936"><g transform="matrix(1,0,0,1,0,134.05205954054716)"><svg viewBox="0 0 192 108.37469975980783" height="108.37469975980783" width="192"><g id="textblocktransform"><svg viewBox="0 0 192 108.37469975980783" height="108.37469975980783" width="192" id="textblock"><g><svg viewBox="0 0 192 108.37469975980783" height="108.37469975980783" width="192"><g transform="matrix(1,0,0,1,0,0)"><svg width="192" viewBox="5 -35 62.45 35.25" height="108.37469975980783" data-palette-color="#bc002d"><path d="M6.05-35L6.05-35Q6.5-35 6.8-34.7 7.1-34.4 7.1-33.95L7.1-33.95 7.1-1.05Q7.05-0.6 6.75-0.3 6.45 0 6.05 0L6.05 0Q5.55 0 5.28-0.3 5-0.6 5-1.05L5-1.05 5-33.95Q5-34.4 5.3-34.7 5.6-35 6.05-35ZM29.95-35L29.95-35Q30.4-35 30.7-34.7 31-34.4 31-33.95L31-33.95 31-1.05Q30.95-0.6 30.65-0.3 30.35 0 29.95 0L29.95 0Q29.45 0 29.18-0.3 28.9-0.6 28.9-1.05L28.9-1.05 28.9-33.95Q28.9-34.4 29.2-34.7 29.5-35 29.95-35ZM5.5-17L5.8-19 30.05-19 29.95-17 5.5-17ZM66.3 0.25L66.3 0.25Q65.9 0.25 65.6-0.1L65.6-0.1 50.5-18.8 52.1-20.4 67.2-1.5Q67.45-1.15 67.45-0.8L67.45-0.8Q67.45-0.2 67.02 0.03 66.6 0.25 66.3 0.25ZM65.4-34.8L65.4-34.8Q65.8-34.8 66.1-34.5 66.4-34.2 66.4-33.8L66.4-33.8Q66.4-33.4 66.1-33.1L66.1-33.1 42.8-11.4 42.35-13.55 64.7-34.5Q65-34.8 65.4-34.8ZM42.05 0L42.05 0Q41.55 0 41.27-0.3 41-0.6 41-1.05L41-1.05 41-33.95Q41-34.4 41.3-34.7 41.6-35 42.05-35L42.05-35Q42.5-35 42.8-34.7 43.1-34.4 43.1-33.95L43.1-33.95 43.1-1.05Q43.05-0.6 42.75-0.3 42.45 0 42.05 0Z" opacity="1" transform="matrix(1,0,0,1,0,0)" fill="#bc002d" class="undefined-text-0" data-fill-palette-color="primary" id="text-0"></path></svg></g></svg></g></svg></g></svg></g><g transform="matrix(1,0,0,1,36.672,0)"><svg viewBox="0 0 118.656 118.23758985279696" height="118.23758985279696" width="118.656"><g><svg xmlns="http://www.w3.org/2000/svg" xmlns:xlink="http://www.w3.org/1999/xlink" version="1.1" x="0" y="0" viewBox="0.5 0.6739999999999969 99 98.65090172791008" enable-background="new 0 0 100 100" xml:space="preserve" height="118.23758985279696" width="118.656" class="icon-icon-0" data-fill-palette-color="accent" id="icon-0"><g fill="#ca3433" data-fill-palette-color="accent"><path fill-rule="evenodd" clip-rule="evenodd" d="M0.5 43.02c2.964-6.913 11.122-9.53 17.861-5.736 1.654 0.932 3.077 2.146 4.29 3.59 3.083 3.673 0.862 9.831-3.866 10.683-0.807 0.146-1.676 0.117-2.493-0.001-1.297-0.186-2.426-0.779-3.125-1.947-0.689-1.151-1.312-2.343-1.967-3.515-0.39-0.697-0.732-1.427-1.187-2.079-1.562-2.239-3.527-2.761-6.027-1.667-0.855 0.375-1.718 0.732-2.586 1.076-0.355 0.141-0.691 0.097-0.9-0.285C0.5 43.099 0.5 43.06 0.5 43.02z" fill="#ca3433" data-fill-palette-color="accent"></path><path fill-rule="evenodd" clip-rule="evenodd" d="M99.5 56.861c-1.107 1.807-2.408 3.456-4.073 4.777-3.891 3.083-8.145 3.349-12.62 1.513-2.235-0.916-4.233-2.189-5.651-4.213-1.872-2.672-1.794-6.367 0.165-8.606 1.668-1.906 4.545-2.741 6.623-1.896 1.393 0.565 2.398 1.602 3.2 2.829 0.531 0.814 0.96 1.695 1.445 2.541 0.36 0.625 0.692 1.272 1.113 1.853 1.554 2.134 3.354 2.693 5.846 1.821 0.846-0.295 1.644-0.724 2.491-1.01 0.457-0.153 0.972-0.136 1.461-0.194C99.5 56.471 99.5 56.666 99.5 56.861z" fill="#ca3433" data-fill-palette-color="accent"></path><path fill-rule="evenodd" clip-rule="evenodd" d="M57.271 0.675c3.906 1.88 6.078 5.065 6.682 9.27 0.72 5.007-0.902 9.205-4.863 12.4-1.795 1.448-3.839 2.173-6.17 1.479-2.788-0.829-4.631-3.21-4.717-6.034-0.084-2.767 1.552-5.087 4.249-6.181 1.094-0.444 2.203-0.939 3.16-1.617 2.317-1.64 2.872-3.952 1.733-6.557-0.272-0.624-0.583-1.237-0.773-1.885-0.073-0.249 0.146-0.582 0.231-0.876C56.959 0.675 57.116 0.675 57.271 0.675z" fill="#ca3433" data-fill-palette-color="accent"></path><path fill-rule="evenodd" clip-rule="evenodd" d="M35.558 87.043c0.082-3.318 1.716-6.796 4.823-9.547 2.649-2.346 6.838-2.174 9.412 0.242 2.487 2.332 2.572 7.186-0.695 9.456-0.815 0.565-1.686 1.054-2.548 1.547-0.609 0.349-1.239 0.661-1.874 0.96-1.701 0.8-2.421 2.188-2.413 4.004 0.006 1.417 0.198 2.798 0.879 4.075 0.182 0.34 0.309 0.716 0.406 1.09 0.096 0.368-0.117 0.519-0.462 0.43-0.243-0.063-0.477-0.173-0.702-0.288C38.062 96.806 35.562 92.734 35.558 87.043z" fill="#ca3433" data-fill-palette-color="accent"></path><path fill-rule="evenodd" clip-rule="evenodd" d="M31.97 31.993c-0.32 0.346-0.6 0.744-0.966 1.029-1.96 1.516-4.203 2.448-6.582 3.069-1.032 0.269-2.059 0.743-3.147 0.47-4.915-1.232-9.091-3.488-11.162-8.453-1.032-2.474-1.082-4.964 0.533-7.251 1.058-1.498 2.5-2.539 4.345-2.841 0.65-0.106 1.41-0.105 2.01 0.129 2.772 1.08 4.781 2.929 5.365 5.976 0.168 0.875 0.058 1.8 0.191 2.685 0.125 0.84 0.295 1.702 0.63 2.475 0.817 1.885 2.858 2.841 5.128 2.566 0.909-0.111 1.828-0.147 2.744-0.19 0.26-0.011 0.525 0.075 0.788 0.117C31.888 31.847 31.929 31.919 31.97 31.993z" fill="#ca3433" data-fill-palette-color="accent"></path><path fill-rule="evenodd" clip-rule="evenodd" d="M90.612 23.938c-0.029 6.589-4.653 12.044-11.204 13.216-2.05 0.367-4.04 0.303-5.95-0.598-2.401-1.133-3.851-3.624-3.669-6.282 0.196-2.863 1.765-5.047 4.22-5.823 1.637-0.517 3.285-0.404 4.893 0.111 0.67 0.214 1.258 0.785 1.927 0.877 1.344 0.184 2.717 0.202 4.077 0.189 0.854-0.008 1.516-0.498 1.902-1.272 0.393-0.784 0.723-1.598 1.112-2.383 0.355-0.715 0.722-1.428 1.141-2.106 0.369-0.6 0.693-0.567 0.948 0.104 0.205 0.541 0.346 1.119 0.425 1.693C90.54 22.415 90.557 23.178 90.612 23.938z" fill="#ca3433" data-fill-palette-color="accent"></path><path fill-rule="evenodd" clip-rule="evenodd" d="M24.015 9.249c6.38-0.15 11.938 4.593 12.852 10.905 0.22 1.519 0.244 3.023 0.041 4.549-0.372 2.789-2.034 4.335-4.625 5.125-4.476 1.364-7.581-1.803-8.139-4.661-0.375-1.926 0.149-3.7 0.911-5.449 0.376-0.867 0.735-1.771 0.899-2.694 0.251-1.414-0.298-2.655-1.399-3.534-0.828-0.66-1.808-1.131-2.723-1.681-0.533-0.32-1.111-0.579-1.599-0.956-0.528-0.409-0.465-0.892 0.163-1.104 0.73-0.247 1.508-0.373 2.273-0.489C23.108 9.194 23.566 9.249 24.015 9.249z" fill="#ca3433" data-fill-palette-color="accent"></path><path fill-rule="evenodd" clip-rule="evenodd" d="M75.268 9.396c3.643 0.067 6.287 2.731 6.412 6.37 0.144 4.132-2.438 5.76-5.459 6.366-1.488 0.299-3.015 0.443-4.479 0.828-2.438 0.641-3.489 2.103-3.586 4.63-0.033 0.876-0.098 1.755-0.229 2.62-0.047 0.304-0.311 0.781-0.516 0.802-0.286 0.032-0.708-0.216-0.9-0.473-1.333-1.773-2.203-3.776-2.629-5.943-1.587-8.07 4.546-13.692 9.48-14.915C73.983 9.529 74.633 9.489 75.268 9.396z" fill="#ca3433" data-fill-palette-color="accent"></path><path fill-rule="evenodd" clip-rule="evenodd" d="M75.206 50.469c0.124-3.9 1.179-7.372 3.674-10.334 1.852-2.196 4.24-3.237 7.029-3.526 2.452-0.254 4.877-0.153 7.252 0.556 2.854 0.852 5.148 3.688 5.288 6.508 0.153 3.075-2.822 6.276-5.903 6.385-1.996 0.071-3.699-0.646-5.249-1.827-0.746-0.568-1.451-1.196-2.234-1.706-2.384-1.551-4.515-1.4-6.622 0.507-1.013 0.916-1.922 1.944-2.871 2.93C75.427 50.11 75.326 50.299 75.206 50.469z" fill="#ca3433" data-fill-palette-color="accent"></path><path fill-rule="evenodd" clip-rule="evenodd" d="M10.132 80.832c-0.236-0.894-0.561-1.771-0.691-2.679-0.532-3.674 0.242-7.111 2.149-10.266 0.46-0.762 1.173-1.434 1.905-1.956 2.895-2.069 6.095-3.296 9.716-3.2 1.476 0.039 2.828 0.45 3.913 1.469 0.779 0.731 1.553 1.5 2.172 2.364 1.344 1.872 1.362 3.853-0.012 5.706-0.771 1.039-1.736 1.951-2.697 2.829-1.091 0.997-2.426 1.112-3.793 0.675-1.335-0.428-2.639-0.957-3.978-1.369-0.72-0.224-1.479-0.356-2.231-0.425-1.695-0.155-2.979 0.597-3.789 2.042-0.656 1.17-1.159 2.424-1.743 3.636-0.192 0.397-0.428 0.774-0.644 1.16C10.316 80.823 10.224 80.827 10.132 80.832z" fill="#ca3433" data-fill-palette-color="accent"></path><path fill-rule="evenodd" clip-rule="evenodd" d="M11.702 63.533c-3.166-0.043-5.817-0.81-8.01-2.796-0.544-0.493-1.048-1.062-1.449-1.676-1.13-1.727-1.214-3.551-0.258-5.384 0.836-1.602 2.094-2.82 3.664-3.69 1.592-0.881 3.196-0.645 4.68 0.245 1.133 0.68 2.152 1.545 3.245 2.295 0.914 0.627 1.822 1.282 2.803 1.788 1.227 0.632 2.483 0.492 3.583-0.35 0.71-0.543 1.332-1.2 2.004-1.793 0.643-0.568 1.272-1.155 1.957-1.668 0.512-0.383 0.826-0.224 0.717 0.389-0.237 1.335-0.5 2.68-0.93 3.961-0.646 1.929-1.473 3.793-2.995 5.232-2.127 2.01-4.724 2.973-7.579 3.332C12.574 63.488 12.006 63.51 11.702 63.533z" fill="#ca3433" data-fill-palette-color="accent"></path><path fill-rule="evenodd" clip-rule="evenodd" d="M36.257 11.411c0.086-2.935 0.773-5.491 2.635-7.579 1.681-1.885 3.811-2.826 6.352-2.214 2.502 0.602 4.089 2.269 4.78 4.736 0.509 1.815 0.123 3.551-0.845 5.106-0.612 0.983-1.421 1.852-2.194 2.724-0.724 0.817-1.346 1.672-1.566 2.761-0.345 1.709 0.309 3.106 1.434 4.317 0.61 0.656 1.33 1.21 1.941 1.866 0.269 0.288 0.388 0.714 0.575 1.078-0.422 0.082-0.855 0.272-1.264 0.23-7.333-0.746-10.896-6.285-11.675-11.167C36.321 12.597 36.302 11.911 36.257 11.411z" fill="#ca3433" data-fill-palette-color="accent"></path><path fill-rule="evenodd" clip-rule="evenodd" d="M75.524 90.558c-3.856 0.19-6.814-1.55-9.302-4.294-1.497-1.65-2.764-3.453-3.241-5.678-0.46-2.133-0.404-4.272 0.194-6.376 0.852-3 2.79-4.384 6.164-4.395 1.836-0.005 3.44 0.698 4.807 1.981 1.617 1.521 2.149 3.297 1.484 5.415-0.496 1.58-0.971 3.168-1.545 4.721-0.655 1.771-0.133 3.213 1.09 4.488 0.896 0.933 1.988 1.556 3.245 1.896 0.504 0.136 1.011 0.306 1.474 0.541 0.523 0.265 0.533 0.595 0.001 0.815-0.73 0.302-1.5 0.541-2.275 0.699C76.938 90.512 76.224 90.502 75.524 90.558z" fill="#ca3433" data-fill-palette-color="accent"></path><path fill-rule="evenodd" clip-rule="evenodd" d="M77.591 63.515c5.717 0.12 11.127 4.247 12.469 9.626 0.813 3.261-0.423 6.353-3.13 7.801-3.101 1.658-7.922 0.909-9.107-4.429-0.23-1.038-0.227-2.129-0.34-3.194-0.37-3.456-1.956-4.937-5.445-5.067-0.841-0.032-1.682-0.017-2.521-0.026-0.137-0.001-0.275-0.011-0.41-0.032-0.768-0.12-0.836-0.308-0.358-0.919 1.3-1.659 3.07-2.582 5.052-3.094C75.038 63.86 76.326 63.729 77.591 63.515z" fill="#ca3433" data-fill-palette-color="accent"></path><path fill-rule="evenodd" clip-rule="evenodd" d="M24.884 90.316c-1.484 0.027-2.809-0.428-3.962-1.348-1.13-0.899-1.999-2.027-2.689-3.288-0.496-0.907-0.567-1.892-0.189-2.83 0.419-1.045 0.91-2.071 1.486-3.036 0.899-1.507 2.408-1.952 4.048-2.064 1.227-0.084 2.465-0.061 3.679-0.227 3.292-0.448 4.728-2.707 4.521-5.921-0.048-0.759-0.077-1.523-0.033-2.28 0.016-0.289 0.259-0.565 0.398-0.848 0.253 0.16 0.519 0.305 0.754 0.487 0.136 0.104 0.233 0.264 0.33 0.409 1.522 2.292 2.68 4.748 3.306 7.438 0.267 1.146-0.002 2.253-0.377 3.325-1.101 3.157-2.78 5.947-5.455 8.014C29.007 89.455 27.083 90.293 24.884 90.316z" fill="#ca3433" data-fill-palette-color="accent"></path><path fill-rule="evenodd" clip-rule="evenodd" d="M63.4 88c-0.003 2.214-0.428 4.336-1.341 6.362-1.079 2.398-2.907 3.669-5.547 3.657-1.145-0.004-2.297-0.085-3.428-0.251-0.439-0.063-0.927-0.369-1.228-0.711-1.255-1.424-2.158-3.063-2.542-4.936-0.089-0.434-0.014-1.012 0.216-1.38 0.812-1.305 1.693-2.571 2.608-3.808 0.932-1.256 1.932-2.46 2.337-4.017 0.27-1.039 0.149-2.045-0.495-2.899-0.536-0.711-1.192-1.332-1.811-1.979-0.513-0.535-1.068-1.03-1.558-1.586-0.157-0.179-0.298-0.58-0.205-0.723 0.125-0.191 0.481-0.314 0.743-0.319 2.491-0.046 4.713 0.777 6.707 2.226 2.219 1.61 4.128 3.514 4.936 6.217 0.397 1.33 0.521 2.741 0.771 4.116C63.51 87.979 63.455 87.989 63.4 88z" fill="#ca3433" data-fill-palette-color="accent"></path></g></svg></g></svg></g><g></g></svg></g></svg></g></svg></g></svg></g><defs></defs></svg><rect width="320" height="360" fill="none" stroke="none" visibility="hidden"></rect></g></svg></g></svg>