<?xml version="1.0" encoding="UTF-8"?>
<svg xmlns="http://www.w3.org/2000/svg" xmlns:xlink="http://www.w3.org/1999/xlink" width="1000px" height="1125px" viewBox="0 0 89 100" version="1.1">
<defs>
<clipPath id="clip1">
  <path d="M 24.675781 52.648438 L 64.324219 52.648438 L 64.324219 75 L 24.675781 75 Z M 24.675781 52.648438 "/>
</clipPath>
<clipPath id="clip2">
  <path d="M 32.25 33 L 39 33 L 39 38 L 32.25 38 Z M 32.25 33 "/>
</clipPath>
<clipPath id="clip3">
  <path d="M 50 36 L 56.753906 36 L 56.753906 41 L 50 41 Z M 50 36 "/>
</clipPath>
<clipPath id="clip4">
  <path d="M 40 43 L 45 43 L 45 49.386719 L 40 49.386719 Z M 40 43 "/>
</clipPath>
<clipPath id="clip5">
  <path d="M 50 33 L 56.753906 33 L 56.753906 38 L 50 38 Z M 50 33 "/>
</clipPath>
<clipPath id="clip6">
  <path d="M 32.25 37 L 39 37 L 39 41 L 32.25 41 Z M 32.25 37 "/>
</clipPath>
<clipPath id="clip7">
  <path d="M 44 43 L 48 43 L 48 49.386719 L 44 49.386719 Z M 44 43 "/>
</clipPath>
</defs>
<g id="surface1">
<path style=" stroke:none;fill-rule:nonzero;fill:rgb(79.215686%,20.392157%,20%);fill-opacity:1;" d="M 5.828125 63.117188 L 6.867188 64.410156 L 6.347656 62.726562 C 6.21875 61.953125 5.3125 62.859375 5.828125 63.117188 M 6.996094 62.339844 C 7.382812 62.988281 7.773438 63.632812 7.773438 64.28125 C 7.773438 65.1875 8.550781 65.574219 9.199219 65.832031 C 8.292969 64.796875 7.773438 61.953125 6.996094 62.339844 M 56.742188 7.480469 C 58.945312 7.480469 61.015625 7.222656 63.347656 7.738281 C 69.050781 9.164062 73.84375 12.007812 77.082031 16.019531 L 86.148438 30.511719 C 86.539062 34.132812 87.316406 38.144531 87.1875 42.542969 C 88.09375 42.542969 87.964844 41.25 89 40.992188 C 87.964844 43.578125 87.445312 46.8125 87.1875 50.566406 C 86.539062 48.496094 87.1875 45.390625 87.316406 43.707031 C 86.410156 45.132812 85.890625 44.097656 85.890625 43.449219 C 86.019531 42.414062 85.503906 42.542969 85.113281 42.15625 C 83.6875 40.863281 82.78125 39.4375 81.746094 37.238281 C 82.394531 35.558594 82.523438 33.097656 80.449219 31.804688 C 79.800781 31.417969 79.023438 30.769531 78.636719 29.734375 C 78.117188 28.3125 77.210938 26.628906 77.46875 24.429688 C 77.601562 23.78125 75.527344 25.851562 74.359375 24.949219 C 69.308594 21.453125 64.257812 17.441406 58.167969 14.078125 C 54.929688 14.078125 52.597656 12.914062 51.429688 11.492188 C 50.394531 10.199219 51.171875 8.515625 52.726562 8.386719 C 53.632812 8.386719 54.667969 8.128906 55.445312 8.644531 C 55.578125 8.128906 56.09375 7.480469 56.742188 7.480469 M 43.917969 4.503906 L 44.175781 4.632812 C 45.472656 4.890625 46.121094 6.703125 47.542969 6.058594 C 47.542969 6.960938 47.675781 7.867188 47.414062 8.515625 C 47.027344 9.550781 45.859375 9.550781 44.953125 9.550781 C 36.273438 9.03125 31.222656 12.65625 25.910156 15.761719 C 24.484375 16.667969 22.929688 17.3125 21.765625 18.476562 C 16.195312 23.652344 10.105469 28.441406 8.679688 38.015625 L 7.515625 48.625 C 7.382812 49.789062 6.089844 50.953125 6.347656 52.378906 L 7.253906 58.71875 C 6.347656 57.8125 5.828125 58.976562 6.089844 59.492188 C 6.21875 59.882812 6.738281 61.175781 7.515625 60.011719 C 8.550781 61.953125 9.585938 65.703125 11.011719 67.386719 C 15.417969 72.5625 21.117188 77.21875 25.78125 81.878906 C 26.945312 81.617188 27.851562 81.617188 28.113281 80.84375 C 28.5 81.617188 27.722656 82.394531 27.074219 82.523438 C 29.148438 83.820312 31.480469 84.984375 34.589844 85.242188 C 38.605469 85.5 42.363281 86.148438 45.859375 87.054688 C 47.675781 86.535156 49.488281 86.277344 51.429688 86.148438 C 52.078125 86.148438 52.46875 85.113281 53.246094 84.855469 L 53.375 83.558594 C 54.152344 84.722656 54.023438 83.171875 53.503906 82.394531 C 54.410156 83.171875 54.667969 83.820312 55.058594 84.335938 C 55.058594 83.949219 56.09375 82.523438 56.09375 84.207031 L 56.355469 82.523438 C 56.742188 82.265625 56.871094 83.949219 57.261719 82.785156 C 57.648438 81.617188 58.425781 82.523438 59.203125 82.136719 C 58.945312 82.652344 59.074219 83.6875 59.980469 83.042969 L 61.015625 82.136719 C 61.664062 83.6875 62.703125 83.042969 63.21875 82.785156 C 68.917969 79.160156 74.621094 74.890625 80.0625 70.621094 L 79.929688 72.304688 L 80.578125 70.234375 C 81.226562 70.878906 81.746094 70.363281 82.003906 69.972656 C 82.78125 68.679688 83.816406 67.386719 85.503906 66.222656 C 83.429688 71.785156 80.96875 76.183594 77.859375 79.808594 L 76.5625 81.359375 C 76.5625 82.265625 76.304688 83.429688 75.269531 83.558594 C 74.75 83.6875 73.714844 83.300781 72.9375 84.078125 C 72.546875 84.59375 73.84375 85.628906 72.804688 84.855469 C 71.898438 84.207031 70.992188 84.855469 69.957031 85.113281 C 69.179688 85.371094 70.472656 86.148438 70.734375 86.664062 C 70.992188 87.183594 71.25 87.699219 71.121094 88.347656 L 69.695312 86.792969 C 68.011719 87.699219 66.976562 89.382812 65.550781 90.675781 C 64.902344 91.195312 65.164062 92.097656 65.164062 92.875 C 64.257812 92.875 63.21875 92.617188 62.703125 93.132812 C 62.3125 93.652344 62.441406 94.429688 62.441406 95.203125 C 61.148438 95.074219 61.015625 93.132812 59.851562 93.523438 C 58.6875 93.78125 57.390625 93.910156 56.355469 94.558594 C 57.132812 96.109375 55.058594 95.203125 55.316406 95.464844 C 53.375 94.296875 51.691406 93.394531 49.617188 94.167969 C 45.210938 92.746094 39.769531 93.394531 35.753906 93.910156 C 35.753906 93.265625 35.886719 92.617188 35.625 92.488281 C 35.367188 93.132812 34.589844 92.875 34.71875 92.875 C 32.257812 91.195312 29.796875 90.160156 27.207031 88.734375 C 24.875 88.992188 22.671875 87.828125 22.023438 87.183594 C 20.210938 85.5 18.136719 86.40625 16.453125 86.019531 C 12.824219 85.113281 11.53125 81.359375 11.140625 78.773438 C 10.882812 77.476562 9.84375 76.960938 9.457031 77.089844 C 7.773438 71.65625 5.183594 66.738281 3.109375 61.691406 C 2.589844 60.398438 2.71875 59.105469 2.71875 57.683594 C 3.367188 57.941406 4.015625 57.8125 3.886719 56.90625 C 3.238281 52.636719 1.683594 49.402344 0 46.296875 C 0.90625 41.898438 1.035156 36.722656 3.109375 32.839844 C 4.921875 29.347656 8.292969 27.535156 10.621094 24.558594 C 11.398438 23.523438 11.398438 22.101562 12.175781 21.195312 C 14.769531 18.609375 17.359375 15.890625 20.210938 13.5625 C 21.503906 12.527344 23.058594 13.5625 25.003906 13.171875 C 25.652344 10.84375 28.242188 8.773438 30.703125 9.421875 C 31.738281 9.679688 33.8125 6.960938 34.460938 6.703125 C 35.496094 6.316406 34.976562 7.738281 34.976562 8.644531 C 37.441406 6.703125 40.808594 5.667969 43.917969 4.503906 "/>
<g clip-path="url(#clip1)" clip-rule="nonzero">
<path style=" stroke:none;fill-rule:nonzero;fill:rgb(73.72549%,0%,17.647059%);fill-opacity:1;" d="M 25.34375 52.648438 C 25.53125 52.648438 25.691406 52.710938 25.816406 52.839844 C 25.945312 52.964844 26.007812 53.125 26.007812 53.3125 L 26.007812 74.175781 C 25.988281 74.367188 25.914062 74.523438 25.785156 74.652344 C 25.660156 74.777344 25.511719 74.839844 25.34375 74.839844 C 25.128906 74.839844 24.96875 74.777344 24.851562 74.652344 C 24.734375 74.523438 24.675781 74.367188 24.675781 74.175781 L 24.675781 53.3125 C 24.675781 53.125 24.738281 52.964844 24.867188 52.839844 C 24.992188 52.710938 25.152344 52.648438 25.34375 52.648438 Z M 40.515625 52.648438 C 40.707031 52.648438 40.867188 52.710938 40.992188 52.839844 C 41.121094 52.964844 41.183594 53.125 41.183594 53.3125 L 41.183594 74.175781 C 41.160156 74.367188 41.085938 74.523438 40.960938 74.652344 C 40.832031 74.777344 40.683594 74.839844 40.515625 74.839844 C 40.304688 74.839844 40.140625 74.777344 40.027344 74.652344 C 39.910156 74.523438 39.847656 74.367188 39.847656 74.175781 L 39.847656 53.3125 C 39.847656 53.125 39.914062 52.964844 40.039062 52.839844 C 40.167969 52.710938 40.324219 52.648438 40.515625 52.648438 Z M 24.992188 64.0625 L 25.183594 62.792969 L 40.578125 62.792969 L 40.515625 64.0625 Z M 63.59375 75 C 63.425781 75 63.277344 74.925781 63.148438 74.777344 L 53.5625 62.921875 L 54.578125 61.90625 L 64.164062 73.890625 C 64.273438 74.039062 64.324219 74.1875 64.324219 74.335938 C 64.324219 74.585938 64.234375 74.761719 64.050781 74.859375 C 63.875 74.953125 63.722656 75 63.59375 75 Z M 63.023438 52.773438 C 63.191406 52.773438 63.339844 52.839844 63.46875 52.964844 C 63.59375 53.09375 63.65625 53.238281 63.65625 53.410156 C 63.65625 53.578125 63.59375 53.726562 63.46875 53.851562 L 48.675781 67.613281 L 48.390625 66.25 L 62.578125 52.964844 C 62.707031 52.839844 62.855469 52.773438 63.023438 52.773438 Z M 48.199219 74.839844 C 47.988281 74.839844 47.820312 74.777344 47.703125 74.652344 C 47.589844 74.523438 47.53125 74.367188 47.53125 74.175781 L 47.53125 53.3125 C 47.53125 53.125 47.59375 52.964844 47.722656 52.839844 C 47.847656 52.710938 48.007812 52.648438 48.199219 52.648438 C 48.390625 52.648438 48.546875 52.710938 48.675781 52.839844 C 48.800781 52.964844 48.863281 53.125 48.863281 53.3125 L 48.863281 74.175781 C 48.84375 74.367188 48.769531 74.523438 48.644531 74.652344 C 48.515625 74.777344 48.367188 74.839844 48.199219 74.839844 Z M 48.199219 74.839844 "/>
</g>
<g clip-path="url(#clip2)" clip-rule="nonzero">
<path style=" stroke:none;fill-rule:evenodd;fill:rgb(79.215686%,20.392157%,20%);fill-opacity:1;" d="M 32.25 35.46875 C 32.980469 33.757812 35 33.113281 36.667969 34.050781 C 37.078125 34.28125 37.429688 34.582031 37.730469 34.9375 C 38.492188 35.84375 37.945312 37.367188 36.773438 37.578125 C 36.574219 37.613281 36.359375 37.605469 36.15625 37.578125 C 35.835938 37.53125 35.554688 37.386719 35.382812 37.097656 C 35.214844 36.8125 35.058594 36.515625 34.898438 36.226562 C 34.800781 36.054688 34.714844 35.875 34.601562 35.714844 C 34.214844 35.160156 33.730469 35.03125 33.109375 35.300781 C 32.898438 35.394531 32.6875 35.484375 32.472656 35.566406 C 32.382812 35.601562 32.300781 35.589844 32.25 35.496094 C 32.25 35.488281 32.25 35.476562 32.25 35.46875 Z M 32.25 35.46875 "/>
</g>
<g clip-path="url(#clip3)" clip-rule="nonzero">
<path style=" stroke:none;fill-rule:evenodd;fill:rgb(79.215686%,20.392157%,20%);fill-opacity:1;" d="M 56.75 38.890625 C 56.476562 39.335938 56.15625 39.742188 55.742188 40.070312 C 54.78125 40.832031 53.726562 40.898438 52.621094 40.445312 C 52.066406 40.21875 51.570312 39.902344 51.222656 39.402344 C 50.757812 38.742188 50.777344 37.828125 51.261719 37.273438 C 51.675781 36.804688 52.386719 36.597656 52.902344 36.808594 C 53.246094 36.945312 53.496094 37.203125 53.695312 37.507812 C 53.824219 37.707031 53.929688 37.925781 54.050781 38.132812 C 54.140625 38.289062 54.222656 38.449219 54.328125 38.59375 C 54.710938 39.121094 55.15625 39.257812 55.773438 39.042969 C 55.984375 38.96875 56.179688 38.863281 56.390625 38.792969 C 56.503906 38.753906 56.628906 38.757812 56.75 38.746094 C 56.75 38.792969 56.75 38.839844 56.75 38.890625 Z M 56.75 38.890625 "/>
</g>
<path style=" stroke:none;fill-rule:evenodd;fill:rgb(79.215686%,20.392157%,20%);fill-opacity:1;" d="M 46.300781 25 C 47.265625 25.464844 47.804688 26.253906 47.953125 27.292969 C 48.132812 28.53125 47.730469 29.566406 46.75 30.355469 C 46.304688 30.714844 45.800781 30.894531 45.222656 30.722656 C 44.53125 30.519531 44.078125 29.929688 44.054688 29.230469 C 44.035156 28.546875 44.4375 27.972656 45.105469 27.703125 C 45.378906 27.59375 45.652344 27.472656 45.890625 27.304688 C 46.460938 26.898438 46.601562 26.328125 46.316406 25.683594 C 46.25 25.527344 46.171875 25.375 46.125 25.214844 C 46.109375 25.15625 46.164062 25.074219 46.183594 25 C 46.222656 25 46.261719 25 46.300781 25 Z M 46.300781 25 "/>
<g clip-path="url(#clip4)" clip-rule="nonzero">
<path style=" stroke:none;fill-rule:evenodd;fill:rgb(79.215686%,20.392157%,20%);fill-opacity:1;" d="M 40.925781 46.351562 C 40.945312 45.53125 41.351562 44.671875 42.121094 43.988281 C 42.773438 43.410156 43.8125 43.453125 44.449219 44.050781 C 45.0625 44.625 45.085938 45.828125 44.277344 46.386719 C 44.074219 46.527344 43.859375 46.648438 43.644531 46.769531 C 43.496094 46.855469 43.339844 46.933594 43.183594 47.007812 C 42.761719 47.203125 42.582031 47.546875 42.585938 47.996094 C 42.585938 48.347656 42.632812 48.6875 42.800781 49.003906 C 42.847656 49.089844 42.878906 49.179688 42.902344 49.273438 C 42.925781 49.363281 42.875 49.402344 42.789062 49.378906 C 42.730469 49.363281 42.671875 49.335938 42.613281 49.308594 C 41.546875 48.761719 40.925781 47.757812 40.925781 46.351562 Z M 40.925781 46.351562 "/>
</g>
<path style=" stroke:none;fill-rule:evenodd;fill:rgb(79.215686%,20.392157%,20%);fill-opacity:1;" d="M 40.039062 32.742188 C 39.957031 32.828125 39.890625 32.925781 39.796875 32.996094 C 39.3125 33.371094 38.757812 33.601562 38.167969 33.753906 C 37.914062 33.820312 37.660156 33.9375 37.390625 33.871094 C 36.175781 33.566406 35.140625 33.007812 34.628906 31.78125 C 34.371094 31.171875 34.359375 30.554688 34.757812 29.988281 C 35.023438 29.617188 35.378906 29.363281 35.835938 29.285156 C 35.996094 29.261719 36.183594 29.261719 36.332031 29.320312 C 37.019531 29.585938 37.515625 30.042969 37.660156 30.796875 C 37.703125 31.011719 37.675781 31.242188 37.707031 31.460938 C 37.738281 31.667969 37.78125 31.878906 37.863281 32.070312 C 38.066406 32.539062 38.570312 32.773438 39.132812 32.707031 C 39.359375 32.679688 39.585938 32.667969 39.8125 32.660156 C 39.875 32.65625 39.941406 32.675781 40.007812 32.6875 C 40.015625 32.707031 40.027344 32.722656 40.039062 32.742188 Z M 40.039062 32.742188 "/>
<path style=" stroke:none;fill-rule:evenodd;fill:rgb(79.215686%,20.392157%,20%);fill-opacity:1;" d="M 54.550781 30.75 C 54.542969 32.378906 53.398438 33.726562 51.777344 34.019531 C 51.269531 34.109375 50.777344 34.09375 50.304688 33.871094 C 49.710938 33.589844 49.351562 32.972656 49.398438 32.316406 C 49.445312 31.609375 49.835938 31.070312 50.441406 30.878906 C 50.847656 30.75 51.253906 30.777344 51.652344 30.90625 C 51.820312 30.957031 51.964844 31.097656 52.128906 31.121094 C 52.464844 31.167969 52.804688 31.171875 53.140625 31.167969 C 53.351562 31.167969 53.515625 31.046875 53.609375 30.855469 C 53.707031 30.660156 53.789062 30.460938 53.886719 30.265625 C 53.972656 30.089844 54.0625 29.910156 54.167969 29.746094 C 54.257812 29.597656 54.339844 29.605469 54.402344 29.769531 C 54.453125 29.902344 54.488281 30.046875 54.507812 30.1875 C 54.535156 30.375 54.539062 30.5625 54.550781 30.75 Z M 54.550781 30.75 "/>
<path style=" stroke:none;fill-rule:evenodd;fill:rgb(79.215686%,20.392157%,20%);fill-opacity:1;" d="M 38.070312 27.121094 C 39.648438 27.082031 41.023438 28.253906 41.25 29.816406 C 41.304688 30.191406 41.308594 30.5625 41.257812 30.941406 C 41.167969 31.628906 40.757812 32.011719 40.113281 32.207031 C 39.007812 32.542969 38.238281 31.761719 38.101562 31.054688 C 38.007812 30.578125 38.136719 30.140625 38.324219 29.707031 C 38.417969 29.492188 38.507812 29.269531 38.546875 29.042969 C 38.609375 28.691406 38.476562 28.386719 38.203125 28.167969 C 37.996094 28.003906 37.753906 27.886719 37.527344 27.753906 C 37.394531 27.671875 37.253906 27.609375 37.132812 27.515625 C 37 27.414062 37.015625 27.296875 37.171875 27.242188 C 37.351562 27.183594 37.546875 27.152344 37.734375 27.121094 C 37.84375 27.105469 37.957031 27.121094 38.070312 27.121094 Z M 38.070312 27.121094 "/>
<path style=" stroke:none;fill-rule:evenodd;fill:rgb(79.215686%,20.392157%,20%);fill-opacity:1;" d="M 50.753906 27.15625 C 51.65625 27.171875 52.308594 27.832031 52.339844 28.730469 C 52.375 29.753906 51.738281 30.15625 50.988281 30.304688 C 50.621094 30.378906 50.242188 30.414062 49.882812 30.507812 C 49.277344 30.667969 49.019531 31.027344 48.992188 31.652344 C 48.984375 31.871094 48.96875 32.085938 48.9375 32.300781 C 48.925781 32.375 48.859375 32.496094 48.808594 32.5 C 48.738281 32.507812 48.632812 32.445312 48.585938 32.382812 C 48.257812 31.945312 48.042969 31.449219 47.9375 30.914062 C 47.542969 28.917969 49.0625 27.527344 50.28125 27.226562 C 50.4375 27.1875 50.597656 27.179688 50.753906 27.15625 Z M 50.753906 27.15625 "/>
<g clip-path="url(#clip5)" clip-rule="nonzero">
<path style=" stroke:none;fill-rule:evenodd;fill:rgb(79.215686%,20.392157%,20%);fill-opacity:1;" d="M 50.738281 37.308594 C 50.769531 36.34375 51.03125 35.488281 51.648438 34.753906 C 52.105469 34.210938 52.699219 33.953125 53.386719 33.882812 C 53.996094 33.820312 54.59375 33.84375 55.183594 34.019531 C 55.890625 34.230469 56.457031 34.933594 56.492188 35.628906 C 56.53125 36.390625 55.792969 37.179688 55.03125 37.207031 C 54.535156 37.226562 54.113281 37.046875 53.730469 36.757812 C 53.546875 36.617188 53.371094 36.460938 53.179688 36.335938 C 52.589844 35.949219 52.0625 35.988281 51.539062 36.460938 C 51.289062 36.6875 51.0625 36.941406 50.828125 37.183594 C 50.792969 37.21875 50.769531 37.265625 50.738281 37.308594 Z M 50.738281 37.308594 "/>
</g>
<path style=" stroke:none;fill-rule:evenodd;fill:rgb(79.215686%,20.392157%,20%);fill-opacity:1;" d="M 34.632812 44.816406 C 34.574219 44.59375 34.492188 44.378906 34.460938 44.152344 C 34.328125 43.246094 34.519531 42.394531 34.992188 41.613281 C 35.105469 41.425781 35.285156 41.261719 35.464844 41.132812 C 36.179688 40.621094 36.972656 40.316406 37.871094 40.339844 C 38.234375 40.351562 38.570312 40.453125 38.839844 40.703125 C 39.03125 40.882812 39.222656 41.074219 39.375 41.289062 C 39.707031 41.75 39.710938 42.242188 39.371094 42.699219 C 39.183594 42.957031 38.941406 43.179688 38.707031 43.398438 C 38.433594 43.644531 38.105469 43.671875 37.765625 43.566406 C 37.4375 43.457031 37.113281 43.328125 36.78125 43.226562 C 36.605469 43.171875 36.414062 43.136719 36.230469 43.121094 C 35.808594 43.082031 35.492188 43.269531 35.292969 43.625 C 35.128906 43.914062 35.003906 44.226562 34.859375 44.523438 C 34.8125 44.621094 34.753906 44.714844 34.699219 44.8125 C 34.679688 44.8125 34.65625 44.8125 34.632812 44.816406 Z M 34.632812 44.816406 "/>
<g clip-path="url(#clip6)" clip-rule="nonzero">
<path style=" stroke:none;fill-rule:evenodd;fill:rgb(79.215686%,20.392157%,20%);fill-opacity:1;" d="M 35.019531 40.539062 C 34.238281 40.527344 33.582031 40.339844 33.039062 39.847656 C 32.902344 39.726562 32.777344 39.585938 32.679688 39.433594 C 32.398438 39.007812 32.378906 38.554688 32.617188 38.101562 C 32.824219 37.707031 33.132812 37.40625 33.523438 37.191406 C 33.917969 36.972656 34.3125 37.03125 34.679688 37.25 C 34.960938 37.417969 35.214844 37.632812 35.484375 37.816406 C 35.710938 37.972656 35.933594 38.136719 36.179688 38.261719 C 36.480469 38.417969 36.792969 38.382812 37.066406 38.171875 C 37.242188 38.039062 37.394531 37.875 37.5625 37.730469 C 37.71875 37.589844 37.875 37.445312 38.046875 37.316406 C 38.171875 37.222656 38.25 37.261719 38.222656 37.414062 C 38.164062 37.742188 38.097656 38.078125 37.992188 38.394531 C 37.832031 38.871094 37.628906 39.332031 37.25 39.6875 C 36.726562 40.183594 36.082031 40.421875 35.375 40.511719 C 35.238281 40.527344 35.097656 40.53125 35.019531 40.539062 Z M 35.019531 40.539062 "/>
</g>
<path style=" stroke:none;fill-rule:evenodd;fill:rgb(79.215686%,20.392157%,20%);fill-opacity:1;" d="M 41.097656 27.652344 C 41.121094 26.929688 41.289062 26.296875 41.75 25.78125 C 42.167969 25.316406 42.695312 25.082031 43.324219 25.234375 C 43.941406 25.382812 44.335938 25.792969 44.507812 26.402344 C 44.632812 26.851562 44.535156 27.28125 44.296875 27.667969 C 44.144531 27.910156 43.945312 28.125 43.753906 28.339844 C 43.574219 28.542969 43.421875 28.753906 43.367188 29.023438 C 43.28125 29.445312 43.441406 29.789062 43.722656 30.089844 C 43.871094 30.25 44.050781 30.386719 44.203125 30.550781 C 44.269531 30.621094 44.296875 30.726562 44.34375 30.816406 C 44.238281 30.835938 44.132812 30.882812 44.03125 30.875 C 42.214844 30.691406 41.335938 29.320312 41.140625 28.113281 C 41.113281 27.949219 41.109375 27.777344 41.097656 27.652344 Z M 41.097656 27.652344 "/>
<path style=" stroke:none;fill-rule:evenodd;fill:rgb(79.215686%,20.392157%,20%);fill-opacity:1;" d="M 50.816406 47.21875 C 49.863281 47.265625 49.128906 46.835938 48.515625 46.15625 C 48.144531 45.75 47.832031 45.304688 47.714844 44.753906 C 47.597656 44.226562 47.613281 43.699219 47.761719 43.179688 C 47.972656 42.4375 48.453125 42.09375 49.285156 42.089844 C 49.742188 42.089844 50.136719 42.265625 50.476562 42.582031 C 50.875 42.957031 51.007812 43.394531 50.84375 43.917969 C 50.722656 44.308594 50.601562 44.703125 50.460938 45.085938 C 50.300781 45.523438 50.429688 45.882812 50.730469 46.195312 C 50.953125 46.425781 51.222656 46.582031 51.535156 46.664062 C 51.660156 46.699219 51.785156 46.742188 51.898438 46.796875 C 52.027344 46.863281 52.03125 46.945312 51.898438 47 C 51.71875 47.074219 51.527344 47.132812 51.335938 47.171875 C 51.167969 47.207031 50.992188 47.207031 50.816406 47.21875 Z M 50.816406 47.21875 "/>
<path style=" stroke:none;fill-rule:evenodd;fill:rgb(79.215686%,20.392157%,20%);fill-opacity:1;" d="M 51.328125 40.535156 C 52.742188 40.5625 54.082031 41.582031 54.414062 42.914062 C 54.617188 43.71875 54.308594 44.484375 53.640625 44.84375 C 52.871094 45.25 51.679688 45.066406 51.386719 43.746094 C 51.328125 43.492188 51.332031 43.222656 51.300781 42.957031 C 51.210938 42.101562 50.816406 41.738281 49.953125 41.707031 C 49.746094 41.695312 49.539062 41.699219 49.332031 41.699219 C 49.296875 41.699219 49.261719 41.695312 49.230469 41.691406 C 49.039062 41.660156 49.023438 41.613281 49.140625 41.464844 C 49.460938 41.054688 49.898438 40.824219 50.390625 40.699219 C 50.695312 40.621094 51.015625 40.585938 51.328125 40.535156 Z M 51.328125 40.535156 "/>
<path style=" stroke:none;fill-rule:evenodd;fill:rgb(79.215686%,20.392157%,20%);fill-opacity:1;" d="M 38.285156 47.160156 C 37.917969 47.164062 37.589844 47.054688 37.304688 46.824219 C 37.023438 46.605469 36.808594 46.324219 36.636719 46.011719 C 36.515625 45.789062 36.496094 45.546875 36.589844 45.3125 C 36.695312 45.054688 36.816406 44.800781 36.957031 44.5625 C 37.179688 44.191406 37.554688 44.082031 37.960938 44.054688 C 38.265625 44.03125 38.570312 44.039062 38.871094 43.996094 C 39.6875 43.886719 40.042969 43.328125 39.988281 42.535156 C 39.976562 42.34375 39.972656 42.15625 39.980469 41.96875 C 39.984375 41.898438 40.046875 41.828125 40.082031 41.761719 C 40.144531 41.800781 40.207031 41.835938 40.265625 41.878906 C 40.300781 41.90625 40.324219 41.945312 40.347656 41.980469 C 40.726562 42.546875 41.011719 43.15625 41.167969 43.820312 C 41.234375 44.101562 41.167969 44.378906 41.074219 44.640625 C 40.800781 45.421875 40.386719 46.113281 39.722656 46.625 C 39.304688 46.945312 38.828125 47.152344 38.285156 47.160156 Z M 38.285156 47.160156 "/>
<g clip-path="url(#clip7)" clip-rule="nonzero">
<path style=" stroke:none;fill-rule:evenodd;fill:rgb(79.215686%,20.392157%,20%);fill-opacity:1;" d="M 47.816406 46.585938 C 47.816406 47.132812 47.710938 47.660156 47.484375 48.160156 C 47.21875 48.753906 46.765625 49.066406 46.113281 49.0625 C 45.828125 49.0625 45.542969 49.042969 45.261719 49 C 45.15625 48.984375 45.035156 48.910156 44.960938 48.824219 C 44.648438 48.472656 44.425781 48.070312 44.332031 47.605469 C 44.308594 47.5 44.328125 47.355469 44.382812 47.265625 C 44.585938 46.941406 44.800781 46.628906 45.027344 46.324219 C 45.261719 46.011719 45.507812 45.714844 45.609375 45.328125 C 45.675781 45.074219 45.644531 44.824219 45.484375 44.613281 C 45.351562 44.4375 45.191406 44.285156 45.035156 44.125 C 44.910156 43.992188 44.773438 43.871094 44.652344 43.730469 C 44.613281 43.6875 44.578125 43.589844 44.601562 43.554688 C 44.632812 43.507812 44.71875 43.476562 44.785156 43.472656 C 45.402344 43.464844 45.949219 43.667969 46.445312 44.023438 C 46.992188 44.421875 47.464844 44.894531 47.667969 45.5625 C 47.765625 45.890625 47.796875 46.238281 47.855469 46.578125 C 47.84375 46.582031 47.832031 46.585938 47.816406 46.585938 Z M 47.816406 46.585938 "/>
</g>
</g>
</svg>
