<?xml version="1.0" standalone="no"?>
<!DOCTYPE svg PUBLIC "-//W3C//DTD SVG 20010904//EN"
 "http://www.w3.org/TR/2001/REC-SVG-20010904/DTD/svg10.dtd">
<svg version="1.0" xmlns="http://www.w3.org/2000/svg"
 width="2250.000000pt" height="2250.000000pt" viewBox="0 0 2250.000000 2250.000000"
 preserveAspectRatio="xMidYMid meet">
<metadata>
Created by potrace 1.14, written by Peter Selinger 2001-2017
</metadata>
<g transform="translate(0.000000,2250.000000) scale(0.100000,-0.100000)"
fill="#000000" stroke="none">
<path d="M11025 21454 c-33 -13 -148 -56 -255 -95 -107 -39 -204 -74 -215 -79
-56 -24 -206 -80 -214 -80 -5 0 -22 -6 -38 -14 -15 -8 -59 -27 -98 -41 -38
-15 -83 -33 -100 -40 -16 -7 -48 -20 -70 -29 -270 -111 -618 -299 -815 -441
-47 -33 -91 -65 -99 -69 -14 -9 -12 37 6 169 4 28 7 89 8 137 0 77 -3 89 -23
111 -52 56 -144 13 -303 -143 -266 -260 -375 -354 -482 -415 -91 -52 -121 -56
-247 -29 -14 2 -63 6 -110 8 -324 14 -676 -172 -904 -479 -82 -110 -124 -186
-173 -315 -13 -36 -28 -68 -32 -72 -24 -26 -311 -27 -490 -2 -267 37 -424 19
-542 -63 -96 -65 -493 -411 -699 -608 -396 -379 -1144 -1130 -1183 -1187 -16
-24 -38 -63 -49 -88 -11 -25 -24 -54 -29 -65 -5 -11 -32 -87 -60 -170 -77
-226 -118 -315 -187 -400 -174 -216 -362 -405 -787 -790 -161 -146 -449 -436
-536 -540 -206 -245 -335 -455 -459 -744 -88 -206 -192 -529 -235 -726 -3 -11
-18 -83 -35 -160 -17 -76 -33 -154 -36 -173 -3 -19 -8 -44 -10 -56 -2 -11 -7
-34 -9 -51 -3 -16 -12 -66 -20 -110 -8 -44 -17 -93 -19 -110 -7 -49 -18 -119
-21 -135 -5 -25 -25 -163 -30 -200 -2 -19 -7 -51 -10 -70 -3 -19 -8 -51 -11
-70 -20 -145 -32 -220 -53 -355 -11 -71 -23 -150 -26 -175 -4 -24 -8 -47 -10
-50 -1 -3 -6 -25 -9 -50 -3 -25 -8 -54 -10 -65 -50 -262 -48 -244 -28 -278 58
-97 256 -488 342 -677 156 -341 311 -761 374 -1017 49 -196 75 -303 81 -338 5
-22 9 -44 10 -50 9 -39 25 -125 29 -150 3 -16 9 -57 15 -90 15 -98 4 -162 -35
-197 -38 -33 -118 -41 -188 -18 -16 6 -31 9 -33 7 -5 -5 -4 -441 2 -507 17
-215 57 -349 201 -668 13 -29 24 -55 24 -57 0 -2 11 -28 24 -57 13 -29 38 -87
56 -128 17 -41 45 -103 61 -138 16 -34 29 -64 29 -66 0 -4 24 -59 80 -181 5
-11 32 -72 60 -135 28 -63 57 -128 65 -145 433 -958 663 -1528 876 -2171 l33
-102 41 -5 c70 -10 130 -43 192 -104 86 -86 139 -201 158 -343 3 -25 8 -52 10
-60 2 -8 7 -28 10 -45 2 -16 7 -39 10 -50 2 -11 9 -40 15 -65 60 -248 179
-536 298 -720 84 -129 233 -297 338 -380 88 -70 237 -153 351 -196 163 -62
193 -66 523 -69 168 -2 330 -6 360 -9 199 -24 373 -100 510 -225 142 -130 391
-253 639 -316 63 -16 77 -19 156 -30 22 -3 52 -8 67 -11 37 -8 287 -8 295 -1
5 6 104 -43 328 -163 39 -21 183 -95 320 -165 522 -267 735 -387 1003 -567 64
-43 77 -48 116 -45 58 6 96 26 123 65 l22 33 16 -25 c13 -20 16 -49 15 -148
-1 -68 -2 -129 -1 -136 1 -9 12 -11 41 -7 21 3 54 8 72 10 18 2 53 7 78 10 25
3 63 7 85 10 22 3 58 7 80 10 46 5 109 13 175 20 25 3 68 7 95 10 28 4 73 8
100 10 28 2 73 6 100 9 28 3 88 8 135 11 47 4 103 8 125 10 237 24 878 24
1115 0 19 -2 67 -6 106 -10 39 -3 80 -7 90 -9 11 -2 42 -7 69 -10 157 -20 527
-101 615 -134 19 -7 46 -3 105 14 97 29 143 35 260 38 210 6 458 -73 743 -236
46 -27 86 -48 88 -48 2 0 23 -12 45 -27 62 -41 254 -62 307 -34 37 20 40 75 7
178 -7 21 1 27 86 68 118 56 336 117 539 151 14 3 69 14 122 26 150 33 188 15
316 -151 111 -144 180 -200 266 -217 28 -5 37 -4 32 4 -11 19 -9 277 3 334 38
179 139 213 538 184 l62 -4 -2 176 c-2 171 -1 179 23 225 15 28 83 107 165
190 77 78 178 185 225 237 121 137 345 358 415 411 33 25 91 65 128 89 l68 43
36 -39 c20 -22 64 -70 99 -109 35 -38 90 -99 123 -134 60 -64 60 -64 67 -37
16 67 -15 197 -79 323 -15 28 -71 99 -126 158 -55 59 -104 120 -110 136 -17
49 6 63 219 133 185 61 200 64 280 62 93 -2 155 -26 228 -86 20 -17 40 -30 44
-30 4 0 -9 30 -29 66 -59 108 -51 154 35 213 72 50 135 63 317 65 152 3 176 5
223 26 58 25 134 101 158 159 27 63 53 177 56 248 2 57 7 73 29 98 34 39 383
459 418 503 14 18 31 39 36 45 24 27 176 230 246 327 147 204 390 588 504 795
151 273 315 598 414 820 30 66 64 143 76 170 54 121 191 455 230 562 19 51 39
102 45 113 21 40 1 33 -76 -25 -249 -187 -440 -393 -634 -683 -83 -123 -116
-164 -154 -189 -64 -44 -114 -44 -180 -2 -27 16 -49 29 -50 27 -3 -4 -78 -240
-80 -252 -5 -24 -59 -186 -62 -186 -2 0 -1 15 1 33 3 30 6 61 20 245 4 39 3
72 0 72 -6 0 -88 -62 -180 -135 -66 -53 -446 -347 -686 -530 -14 -11 -208
-157 -430 -323 -222 -167 -411 -309 -419 -315 -63 -49 -729 -528 -874 -628
-43 -30 -122 -84 -175 -121 -117 -82 -675 -456 -786 -527 -44 -28 -87 -56 -95
-61 -231 -156 -351 -194 -457 -145 -54 25 -114 87 -146 153 -19 38 -40 54 -49
34 -1 -4 -57 -54 -122 -110 -157 -135 -220 -153 -267 -79 -17 27 -20 44 -16
102 3 39 8 78 12 88 6 15 4 16 -21 7 -35 -14 -94 -15 -164 -5 -150 21 -194 -4
-250 -147 -38 -99 -58 -99 -110 -2 -34 64 -61 91 -79 80 -5 -3 -12 -32 -17
-63 -4 -32 -8 -60 -9 -63 -1 -3 -5 -30 -9 -60 -9 -58 -9 -60 -22 -130 l-8 -45
-7 58 c-9 76 -37 110 -80 95 -38 -13 -93 -76 -126 -143 l-27 -54 -72 109 c-93
141 -166 230 -242 295 l-23 19 24 -49 c45 -89 74 -219 61 -271 -9 -36 -40 -30
-83 18 l-38 41 -8 -84 c-4 -46 -9 -93 -11 -104 -1 -11 -4 -37 -5 -58 -2 -35
-6 -40 -48 -60 -26 -12 -84 -60 -137 -112 -153 -154 -156 -155 -369 -170 -49
-3 -106 -8 -125 -10 -19 -2 -57 -7 -85 -10 -45 -5 -78 -9 -155 -20 -14 -2 -52
-7 -85 -11 -33 -3 -62 -8 -65 -9 -3 -2 -26 -6 -50 -10 -74 -10 -317 -62 -435
-93 l-110 -28 -135 33 c-136 34 -156 39 -375 88 -146 33 -152 34 -190 41 -16
3 -61 11 -100 19 -161 32 -366 69 -445 80 -67 9 -103 15 -120 20 -8 2 -40 7
-70 10 -30 3 -64 8 -75 10 -11 3 -42 7 -70 11 -27 3 -61 7 -75 9 -14 1 -50 6
-80 9 -30 4 -66 9 -80 11 -40 6 -123 15 -285 30 -33 3 -80 8 -105 10 -55 6
-139 12 -245 20 -221 16 -453 52 -620 96 -22 6 -48 13 -57 14 -45 9 -325 108
-423 150 -158 68 -421 202 -535 275 -8 5 -38 23 -67 39 -56 33 -73 51 -48 51
26 0 93 38 136 77 80 73 116 176 89 258 l-13 38 -13 -31 c-28 -67 -114 -122
-229 -147 -15 -4 -167 -35 -195 -40 -94 -18 -79 -25 -187 82 -190 186 -469
453 -673 643 -14 14 -84 79 -155 145 -70 66 -137 128 -148 137 -10 10 -74 68
-140 130 -163 152 -235 219 -277 258 -31 29 -206 192 -314 293 -382 357 -938
914 -1176 1177 -47 52 -106 117 -131 145 -50 54 -194 220 -219 251 -137 173
-283 463 -455 899 -26 66 -55 139 -66 162 -10 24 -19 47 -19 53 0 6 -4 18 -10
28 -5 9 -28 64 -51 122 -23 58 -56 137 -74 175 -58 125 -88 190 -91 194 -2 2
-23 -17 -48 -42 -79 -82 -134 -76 -208 23 -39 51 -81 166 -82 219 -1 103 78
189 159 171 32 -7 91 -42 108 -65 5 -5 6 4 3 20 -3 17 -8 57 -12 90 -3 33 -8
62 -9 65 -2 3 -6 33 -10 65 -4 33 -8 71 -11 85 -6 37 -24 159 -30 205 -2 22
-6 47 -9 55 -2 8 -7 40 -10 70 -4 30 -11 87 -17 125 -5 39 -11 84 -13 100 -3
17 -7 41 -9 54 -3 13 -8 49 -12 80 -3 31 -8 64 -10 74 -1 10 -10 70 -19 135
-9 64 -19 128 -21 142 -3 14 -7 68 -9 121 -6 131 14 201 126 428 112 227 133
286 144 416 3 33 8 71 10 85 2 14 7 57 10 95 3 39 8 81 10 95 2 14 7 48 9 75
3 28 8 75 11 105 3 30 8 69 10 85 2 17 7 57 10 90 3 33 7 71 10 85 2 14 7 55
10 92 3 37 7 75 9 85 2 10 7 56 11 103 4 47 8 87 10 90 2 3 6 41 9 85 4 44 9
87 11 95 2 8 6 47 10 85 3 39 8 86 10 105 2 19 7 60 10 90 3 30 8 69 9 85 8
61 19 161 21 185 4 39 25 231 30 275 2 22 7 60 10 85 2 25 7 65 9 90 3 25 8
62 11 84 4 21 8 48 9 60 11 80 63 324 106 495 48 189 162 540 197 606 6 11 12
25 13 30 20 92 242 536 383 765 38 62 203 314 220 335 4 6 31 42 59 80 123
167 281 360 448 549 183 205 547 568 871 868 20 18 85 78 145 134 108 100 191
177 243 223 43 39 243 224 271 251 53 51 137 119 215 172 79 55 381 238 392
238 5 0 120 68 698 413 207 123 475 280 580 337 33 19 92 51 130 72 87 48 464
236 525 262 25 11 86 37 135 58 50 21 98 43 107 48 10 6 23 10 29 10 6 0 25 6
42 14 18 7 46 19 62 26 135 57 667 211 805 234 19 3 60 10 90 16 30 6 64 13
75 15 38 7 230 34 285 40 30 3 70 8 88 11 18 2 72 6 120 10 48 3 114 7 147 9
71 5 395 5 655 0 199 -3 297 10 391 52 91 41 156 129 184 251 13 53 19 418 7
464 -3 15 -7 15 -39 2 -60 -26 -145 -20 -219 15 -53 25 -142 85 -164 112 -19
22 -177 142 -210 159 -57 29 -174 70 -196 69 -11 0 -46 -12 -79 -25z m-8095
-13021 c41 -47 96 -152 165 -318 56 -135 64 -154 101 -231 19 -39 50 -93 68
-122 19 -28 37 -56 41 -62 13 -21 -138 56 -192 98 -42 34 -90 104 -102 151 -6
20 -13 68 -16 106 -10 107 -48 209 -131 346 -19 31 -34 62 -34 68 0 6 13 11
29 11 22 0 39 -11 71 -47z m-245 -76 c15 -45 28 -89 30 -97 2 -9 14 -49 28
-90 28 -85 47 -150 43 -150 -2 0 -45 53 -96 118 -51 64 -109 134 -128 154 -39
41 -44 74 -17 114 21 32 73 56 97 43 10 -5 29 -45 43 -92z"/>
<path d="M14288 20825 c-2 -2 -80 -5 -173 -7 -155 -4 -174 -6 -218 -28 -62
-31 -132 -106 -163 -175 -26 -56 -32 -62 -50 -47 -15 15 -94 43 -138 50 -99
16 -447 1 -539 -23 -104 -27 -218 -120 -262 -212 -64 -134 -52 -293 31 -425
60 -96 257 -267 399 -348 169 -97 385 -178 590 -221 33 -7 62 -13 65 -14 15
-3 100 -16 130 -19 129 -15 166 -18 256 -21 101 -3 114 -7 198 -55 17 -10 81
-46 141 -80 598 -341 1297 -804 2302 -1527 109 -79 317 -228 463 -333 564
-404 678 -481 729 -495 103 -27 220 3 430 111 80 41 152 74 161 74 14 0 16
-19 13 -167 -4 -295 34 -457 218 -924 129 -327 201 -423 436 -581 120 -80 263
-215 263 -247 0 -5 3 -11 8 -13 13 -6 69 -122 90 -188 12 -36 26 -94 32 -130
12 -68 15 -236 6 -304 -15 -105 -18 -125 -32 -181 -9 -33 -24 -86 -35 -118
l-19 -57 76 -152 c41 -84 100 -195 130 -248 71 -123 75 -129 101 -167 13 -17
23 -36 23 -40 0 -5 8 -18 18 -29 9 -10 35 -44 56 -74 120 -170 323 -383 427
-448 90 -57 101 -80 103 -211 2 -121 23 -181 77 -224 56 -44 130 -12 204 88
l37 50 -6 -60 c-9 -83 -16 -144 -22 -185 -3 -19 -7 -57 -10 -85 -2 -27 -11
-102 -19 -166 -38 -307 -42 -718 -10 -889 20 -108 43 -176 42 -124 -1 33 12
222 18 257 2 12 6 54 10 92 11 116 15 154 31 290 25 203 28 224 49 350 3 17
10 59 15 95 49 304 177 789 264 992 21 50 21 49 -21 31 -61 -25 -94 -58 -173
-176 -77 -114 -123 -157 -170 -157 l-26 0 0 213 c-1 200 -10 526 -18 592 -2
17 -7 82 -11 145 -4 63 -9 124 -11 134 -2 11 -6 49 -9 85 -3 36 -7 80 -9 96
-2 17 -7 64 -11 105 -4 41 -9 82 -10 91 -2 9 -8 61 -15 115 -6 55 -13 115 -16
134 -3 19 -7 53 -10 75 -2 22 -6 56 -9 75 -3 19 -7 52 -10 74 -2 21 -7 55 -9
75 -3 20 -8 61 -12 91 -7 60 -9 73 -18 140 -10 68 -15 110 -22 169 -3 30 -7
62 -9 71 -2 9 -6 50 -10 91 -3 41 -10 90 -14 110 -5 20 -111 200 -237 400
-125 200 -242 387 -259 414 -16 28 -161 258 -320 512 -160 255 -294 471 -300
481 -5 9 -95 153 -200 320 -104 166 -194 310 -200 320 -5 9 -28 47 -51 82 -84
135 -349 559 -403 645 -89 144 -183 256 -396 471 -303 305 -608 545 -995 781
-256 156 -607 330 -865 430 -49 19 -103 41 -120 48 -84 37 -422 147 -610 199
-187 51 -319 78 -445 92 -30 3 -71 8 -90 11 -36 6 -827 13 -832 8z"/>
<path d="M11631 16871 c-21 -14 -16 -51 18 -129 72 -164 42 -295 -88 -385 -46
-31 -137 -78 -180 -92 -69 -21 -157 -104 -197 -185 -112 -223 68 -504 322
-504 113 0 212 49 321 160 144 146 210 310 206 512 -4 209 -65 366 -192 492
-80 79 -186 145 -210 131z"/>
<path d="M10780 16808 c-70 -27 -184 -139 -222 -218 -26 -54 -52 -135 -63
-195 -6 -34 -7 -167 -2 -205 44 -305 251 -545 532 -615 68 -17 170 -24 181
-12 13 13 -11 48 -93 132 -104 107 -130 161 -119 251 8 67 30 106 121 216 41
48 85 106 98 130 116 199 11 462 -209 526 -63 18 -161 14 -224 -10z"/>
<path d="M9655 16384 c-80 -19 -92 -32 -65 -67 12 -15 25 -27 30 -27 16 0 221
-129 241 -152 33 -39 48 -73 52 -120 4 -44 -2 -65 -78 -278 -40 -111 -38 -214
4 -302 90 -190 301 -254 499 -154 134 68 180 152 188 341 10 255 -81 465 -266
617 -66 53 -185 113 -265 133 -92 23 -262 27 -340 9z"/>
<path d="M12573 16379 c-60 -11 -169 -59 -238 -105 -250 -165 -370 -452 -310
-739 33 -157 134 -345 186 -345 27 0 39 37 45 139 12 185 58 258 190 299 38
12 85 24 104 27 19 2 44 6 55 9 11 2 40 7 65 11 56 8 134 32 180 55 55 28 96
71 127 130 26 50 28 64 28 160 0 92 -4 112 -27 162 -73 157 -221 229 -405 197z"/>
<path d="M9284 15905 c-160 -37 -284 -186 -290 -351 -4 -89 13 -156 68 -264
33 -67 61 -103 128 -170 47 -47 105 -96 130 -109 109 -58 188 -93 240 -106 8
-2 38 -10 65 -18 28 -7 64 -13 80 -11 69 5 295 81 375 126 88 49 175 122 164
139 -3 5 -78 8 -167 7 -139 -3 -167 0 -198 15 -45 22 -94 69 -114 110 -22 44
-43 147 -49 242 -8 118 -37 185 -116 265 -102 104 -214 148 -316 125z"/>
<path d="M13407 15778 c-18 -29 -50 -91 -72 -138 -21 -47 -46 -95 -54 -107
-25 -35 -68 -47 -158 -45 -128 2 -164 9 -239 44 -65 31 -76 33 -174 32 -124 0
-178 -19 -248 -87 -79 -76 -107 -154 -106 -289 0 -70 17 -133 46 -173 86 -119
199 -175 351 -178 209 -3 394 75 547 233 127 130 198 296 205 475 4 138 -24
285 -55 285 -6 0 -25 -24 -43 -52z"/>
<path d="M9060 14932 c-225 -22 -423 -153 -534 -354 -52 -94 -30 -102 114 -42
128 52 171 60 231 44 87 -24 140 -79 224 -235 118 -222 130 -237 204 -276 52
-27 183 -36 247 -17 147 44 249 181 259 346 9 147 -76 280 -254 401 -153 104
-322 150 -491 133z"/>
<path d="M13348 14885 c-2 -1 -39 -5 -83 -9 -190 -14 -328 -89 -440 -239 -67
-89 -131 -228 -149 -323 -8 -41 -19 -131 -21 -165 l-2 -37 56 61 c155 168 221
210 326 208 72 -2 129 -27 225 -102 143 -110 231 -149 336 -149 147 0 294 115
337 265 25 90 6 182 -61 283 -73 112 -201 180 -367 197 -84 8 -154 13 -157 10z"/>
<path d="M12955 14224 c-63 -17 -90 -30 -143 -72 -137 -109 -166 -331 -64
-497 111 -182 430 -335 663 -318 210 16 403 138 548 347 76 110 49 121 -125
53 -50 -20 -113 -38 -139 -41 -110 -10 -195 47 -273 182 -23 40 -60 103 -82
141 -50 87 -126 166 -184 192 -56 25 -137 30 -201 13z"/>
<path d="M8801 14140 c-91 -42 -174 -123 -222 -219 -64 -127 -38 -251 79 -368
115 -117 276 -174 471 -168 122 3 137 6 246 41 127 42 246 128 314 227 62 91
128 276 147 410 6 42 4 47 -12 47 -20 0 -34 -11 -158 -123 -44 -40 -92 -80
-108 -90 -39 -24 -109 -32 -149 -18 -29 10 -155 85 -169 101 -19 21 -194 138
-235 157 -63 29 -143 30 -204 3z"/>
<path d="M9647 13418 c-157 -17 -364 -109 -475 -212 -109 -100 -195 -357 -185
-553 4 -79 3 -77 28 -170 22 -87 28 -85 80 25 77 163 101 205 137 237 83 75
167 71 437 -23 172 -60 225 -48 341 75 87 92 102 111 124 160 44 100 13 209
-93 320 -126 132 -205 161 -394 141z"/>
<path d="M12682 13365 c-172 -33 -275 -79 -354 -158 -46 -46 -58 -70 -39 -81
5 -3 69 -8 142 -10 108 -4 144 -9 184 -26 67 -29 111 -73 135 -138 22 -57 24
-72 35 -197 14 -157 68 -268 160 -329 65 -43 108 -56 181 -57 76 0 90 3 168
40 114 55 183 159 193 295 7 94 -8 158 -64 273 -132 272 -457 442 -741 388z"/>
<path d="M10243 13073 c-6 -16 -9 -74 -8 -130 2 -129 -18 -202 -71 -256 -62
-64 -116 -83 -266 -92 -132 -9 -183 -14 -204 -21 -89 -29 -130 -72 -188 -194
-73 -151 -54 -232 84 -371 93 -93 141 -114 260 -114 66 0 112 6 149 19 201 69
386 274 477 530 37 104 36 181 -6 301 -57 163 -170 355 -208 355 -5 0 -14 -12
-19 -27z"/>
<path d="M12209 13016 c-109 -28 -182 -99 -220 -214 -38 -116 -44 -238 -16
-370 50 -232 303 -488 537 -543 51 -11 220 -15 265 -5 99 21 155 44 155 63 0
14 -72 52 -99 53 -33 0 -130 58 -176 105 -57 58 -84 121 -78 180 2 22 28 116
58 208 72 222 72 273 -2 380 -35 51 -135 121 -198 140 -61 17 -164 19 -226 3z"/>
<path d="M11286 12707 c-25 -18 -20 -25 93 -144 52 -54 102 -115 112 -137 33
-75 6 -171 -84 -297 -26 -35 -51 -70 -57 -76 -6 -7 -40 -56 -75 -110 -75 -111
-78 -128 -40 -230 49 -129 127 -227 193 -240 20 -4 91 -7 157 -7 101 -1 127 3
165 20 140 64 225 235 245 489 6 80 -14 214 -45 303 -58 165 -256 348 -445
410 -82 28 -194 37 -219 19z"/>
<path d="M10890 12685 c-107 -21 -183 -75 -284 -199 -150 -187 -195 -422 -124
-661 52 -177 157 -312 314 -401 103 -59 114 -45 62 76 -29 68 -32 85 -32 180
-1 156 18 184 194 278 171 91 207 117 255 182 64 88 81 234 39 336 -63 153
-249 245 -424 209z"/>
<path d="M6913 10649 c-46 -9 -80 -34 -100 -72 -16 -30 -17 -176 -17 -2412 0
-1309 3 -2392 7 -2407 12 -44 62 -86 113 -94 65 -9 117 16 152 75 l27 46 0
1150 0 1150 1548 0 c851 0 1551 -2 1555 -5 4 -3 8 -525 8 -1160 0 -1132 0
-1156 19 -1188 57 -96 204 -90 257 11 l22 42 0 2380 1 2380 -24 39 c-59 94
-199 92 -256 -4 -20 -35 -20 -50 -21 -1115 -1 -594 -2 -1083 -3 -1088 0 -4
-700 -6 -1553 -5 l-1553 3 0 1085 -1 1085 -23 38 c-34 55 -93 80 -158 66z"/>
<path d="M12047 10650 c-43 -8 -95 -56 -106 -98 -15 -51 -15 -4742 -1 -4794
21 -74 116 -117 192 -85 19 8 48 32 64 53 l29 37 3 782 2 782 103 95 c56 52
125 116 152 141 28 25 70 65 95 88 25 24 106 100 180 169 74 69 159 148 190
177 30 28 69 64 85 79 17 15 81 75 143 133 62 58 117 107 121 109 4 1 40 -39
81 -90 41 -51 79 -99 86 -108 34 -40 122 -150 149 -184 17 -21 37 -46 45 -56
31 -37 106 -130 137 -170 7 -8 76 -94 155 -191 79 -97 240 -297 358 -444 118
-147 223 -277 233 -288 10 -12 31 -37 45 -56 15 -18 115 -142 222 -275 107
-132 289 -358 404 -501 215 -267 267 -324 295 -326 75 -6 152 24 175 69 23 45
25 96 5 139 -12 27 -1082 1377 -1303 1644 -8 10 -38 48 -68 85 -57 74 -73 93
-101 127 -10 12 -31 37 -45 56 -25 31 -139 174 -169 211 -7 8 -114 143 -239
299 l-226 284 49 46 c85 81 297 279 328 307 28 25 236 219 295 274 85 79 275
257 290 270 10 8 71 65 136 126 66 61 135 126 154 144 19 18 86 80 149 139 62
58 130 121 150 140 20 18 65 61 101 95 37 33 115 106 175 161 141 131 168 159
181 198 24 66 -10 137 -80 167 -73 32 -108 18 -216 -86 -36 -34 -75 -71 -87
-81 -12 -10 -81 -76 -155 -145 -73 -69 -151 -143 -173 -163 -41 -38 -276 -259
-325 -305 -32 -30 -262 -245 -299 -280 -15 -14 -91 -86 -170 -160 -78 -74
-151 -141 -161 -150 -10 -9 -83 -76 -161 -150 -79 -74 -179 -169 -223 -210
-44 -41 -114 -107 -156 -147 -41 -39 -86 -81 -100 -93 -14 -12 -59 -54 -100
-93 -42 -40 -141 -133 -220 -207 -80 -74 -183 -171 -229 -215 -47 -44 -117
-110 -156 -146 -38 -36 -106 -100 -150 -141 -44 -42 -96 -90 -115 -107 l-35
-30 -5 1427 c-5 1528 -3 1456 -55 1494 -29 22 -91 36 -128 28z"/>
</g>
</svg>
